<svg xmlns="http://www.w3.org/2000/svg" width="66" height="97.430" viewBox="0 0 66 97.430" fill="none">
  <path d="M 54.249 48.518 L 3.525 82.305 C 1.175 83.876 0 86.43 0 88.983 L 0 97.43 L 61.496 56.965 C 64.237 55.001 66 51.858 66 48.518 C 66 45.179 64.433 42.036 61.496 40.072 L 0 0 L 0 7.857 C 0 10.607 1.371 13.161 3.525 14.536 L 54.249 48.518 Z" fill="currentColor" fill-rule="nonzero"></path>
  <path d="M 23.697 51.268 C 26.439 53.036 29.964 53.036 32.706 51.268 L 37.015 48.322 L 4.896 26.518 C 2.938 25.143 0 26.518 0 29.072 L 0 35.554 L 16.647 46.751 L 23.697 51.268 Z" fill="currentColor" fill-rule="nonzero"></path>
</svg>