<svg xmlns="http://www.w3.org/2000/svg" viewBox="0 0 266 40" width="266" height="40" role="img" aria-label="The Crescent Theater">
  <g transform="translate(4.00,3.00) scale(0.31187)"><g fill="#09021A"><path transform="matrix(0.259,0.966,-0.966,0.259,116.190,0)" d="M 13.432 114.855 C 13.434 114.857 13.437 114.854 13.435 114.852 C 11.146 111.732 11.845 108.054 14.841 105.733 C 17.294 103.839 20.736 103.606 23.373 105.135 C 26.009 106.663 27.254 109.721 26.302 112.479 C 25.803 113.925 24.791 115.106 23.408 115.902 C 22.233 116.579 21.956 118.411 23.298 118.6 C 25.648 118.93 28.12 118.61 30.33 117.696 C 38.21 114.4 35.768 102.639 34.461 95.749 C 34.321 95.01 33.604 94.526 32.86 94.642 C 24.062 96.012 15.465 93.487 9.056 87.954 C -0.648 79.613 -2.772 66.819 3.746 56.185 C 6.456 51.766 9.971 48.011 14.145 44.588 L 19.842 39.893 C 20.252 39.555 20.423 39.007 20.285 38.494 C 18.33 31.212 17.54 24.097 18.21 16.674 C 18.722 11.124 20.883 5.907 24.874 1.72 C 26.156 0.39 28.389 -0.573 30.11 0.39 C 36.152 3.847 38.679 14.082 38.02 20.097 C 36.982 29.809 32.62 38.887 25.891 46.522 C 25.6 46.853 25.483 47.303 25.584 47.731 L 27.474 55.798 C 27.638 56.498 28.324 56.94 29.037 56.846 C 39.8 55.425 49.728 61.892 51.348 71.837 C 52.968 81.774 46.903 90.298 37.191 93.598 C 36.527 93.823 36.114 94.498 36.255 95.185 C 37.502 101.274 38.731 107.671 36.775 113.31 C 34.211 120.654 25.057 121.551 18.613 118.992 C 16.533 118.164 14.781 116.644 13.428 114.858 C 13.427 114.856 13.43 114.853 13.432 114.855 Z M 22.774 37.044 C 22.782 37.044 22.79 37.041 22.796 37.035 C 26.783 33.051 29.783 29.099 32.088 24.583 C 33.406 21.791 34.248 19.033 34.248 15.976 C 34.065 14.547 33.882 12.786 32.637 11.922 C 30.33 10.293 27.291 11.157 25.497 13.052 C 20.522 18.628 20.919 30.438 22.744 37.022 C 22.748 37.035 22.76 37.044 22.774 37.044 Z M 21.048 77.171 C 21.037 77.181 21.033 77.197 21.037 77.211 C 21.789 79.424 23.138 80.328 24.653 80.981 C 25.822 81.486 25.602 82.625 24.36 82.347 C 22.408 81.91 20.614 80.935 19.272 79.514 C 15.903 75.991 14.878 71.106 16.562 66.387 C 17.769 62.98 20.572 59.795 24.775 58.057 C 25.436 57.784 25.825 57.073 25.636 56.383 L 24.099 50.76 C 23.843 49.825 22.711 49.46 21.965 50.079 C 16.406 54.683 10.105 60.483 7.335 66.421 C 4.295 72.934 4.918 79.979 9.422 85.528 C 14.706 92.039 24.07 94.634 32.561 92.415 C 33.231 92.24 33.623 91.557 33.475 90.88 L 28.243 66.902 C 28.083 66.165 27.34 65.697 26.637 65.971 C 22.045 67.766 19.531 72.571 21.058 77.131 C 21.063 77.145 21.059 77.161 21.048 77.171 Z M 42.597 70.508 C 40.205 66.62 35.554 64.727 31.021 65.079 C 30.261 65.138 29.774 65.878 29.941 66.622 L 35.129 89.691 C 35.316 90.524 36.228 90.975 36.966 90.545 C 44.285 86.287 46.931 77.532 42.597 70.508 Z"></path><path transform="matrix(-0.259,-0.966,0.966,-0.259,26.954,109.021)" d="M 13.432 114.855 C 13.434 114.857 13.437 114.854 13.435 114.852 C 11.146 111.732 11.845 108.054 14.841 105.733 C 17.294 103.839 20.736 103.606 23.373 105.135 C 26.009 106.663 27.254 109.721 26.302 112.479 C 25.803 113.925 24.791 115.106 23.408 115.902 C 22.233 116.579 21.956 118.411 23.298 118.6 C 25.648 118.93 28.12 118.61 30.33 117.696 C 38.21 114.4 35.768 102.639 34.461 95.749 C 34.321 95.01 33.604 94.526 32.86 94.642 C 24.062 96.012 15.465 93.487 9.056 87.954 C -0.648 79.613 -2.772 66.819 3.746 56.185 C 6.456 51.766 9.971 48.011 14.145 44.588 L 19.842 39.893 C 20.252 39.555 20.423 39.007 20.285 38.494 C 18.33 31.212 17.54 24.097 18.21 16.674 C 18.722 11.124 20.883 5.907 24.874 1.72 C 26.156 0.39 28.389 -0.573 30.11 0.39 C 36.152 3.847 38.679 14.082 38.02 20.097 C 36.982 29.809 32.62 38.887 25.891 46.522 C 25.6 46.853 25.483 47.303 25.584 47.731 L 27.474 55.798 C 27.638 56.498 28.324 56.94 29.037 56.846 C 39.8 55.425 49.728 61.892 51.348 71.837 C 52.968 81.774 46.903 90.298 37.191 93.598 C 36.527 93.823 36.114 94.498 36.255 95.185 C 37.502 101.274 38.731 107.671 36.775 113.31 C 34.211 120.654 25.057 121.551 18.613 118.992 C 16.533 118.164 14.781 116.644 13.428 114.858 C 13.427 114.856 13.43 114.853 13.432 114.855 Z M 22.774 37.044 C 22.782 37.044 22.79 37.041 22.796 37.035 C 26.783 33.051 29.783 29.099 32.088 24.583 C 33.406 21.791 34.248 19.033 34.248 15.976 C 34.065 14.547 33.882 12.786 32.637 11.922 C 30.33 10.293 27.291 11.157 25.497 13.052 C 20.522 18.628 20.919 30.438 22.744 37.022 C 22.748 37.035 22.76 37.044 22.774 37.044 Z M 21.048 77.171 C 21.037 77.181 21.033 77.197 21.037 77.211 C 21.789 79.424 23.138 80.328 24.653 80.981 C 25.822 81.486 25.602 82.625 24.36 82.347 C 22.408 81.91 20.614 80.935 19.272 79.514 C 15.903 75.991 14.878 71.106 16.562 66.387 C 17.769 62.98 20.572 59.795 24.775 58.057 C 25.436 57.784 25.825 57.073 25.636 56.383 L 24.099 50.76 C 23.843 49.825 22.711 49.46 21.965 50.079 C 16.406 54.683 10.105 60.483 7.335 66.421 C 4.295 72.934 4.918 79.979 9.422 85.528 C 14.706 92.039 24.07 94.634 32.561 92.415 C 33.231 92.24 33.623 91.557 33.475 90.88 L 28.243 66.902 C 28.083 66.165 27.34 65.697 26.637 65.971 C 22.045 67.766 19.531 72.571 21.058 77.131 C 21.063 77.145 21.059 77.161 21.048 77.171 Z M 42.597 70.508 C 40.205 66.62 35.554 64.727 31.021 65.079 C 30.261 65.138 29.774 65.878 29.941 66.622 L 35.129 89.691 C 35.316 90.524 36.228 90.975 36.966 90.545 C 44.285 86.287 46.931 77.532 42.597 70.508 Z"></path></g></g>
  <text x="62.64" y="26" font-family="'Playfair Display', Georgia, 'Times New Roman', serif" font-style="italic" font-weight="600" font-size="22" fill="#09021A">The Crescent Theater</text>
</svg>