<svg xmlns="http://www.w3.org/2000/svg" viewBox="0 0 279 40" width="279" height="40" role="img" aria-label="The Crescent Theater">
  <g transform="translate(4.00,3.00) scale(0.31187)"><g fill="#ffffff"><path transform="matrix(0.259,0.966,-0.966,0.259,116.190,0)" d="M 13.432 114.855 C 13.434 114.857 13.437 114.854 13.435 114.852 C 11.146 111.732 11.845 108.054 14.841 105.733 C 17.294 103.839 20.736 103.606 23.373 105.135 C 26.009 106.663 27.254 109.721 26.302 112.479 C 25.803 113.925 24.791 115.106 23.408 115.902 C 22.233 116.579 21.956 118.411 23.298 118.6 C 25.648 118.93 28.12 118.61 30.33 117.696 C 38.21 114.4 35.768 102.639 34.461 95.749 C 34.321 95.01 33.604 94.526 32.86 94.642 C 24.062 96.012 15.465 93.487 9.056 87.954 C -0.648 79.613 -2.772 66.819 3.746 56.185 C 6.456 51.766 9.971 48.011 14.145 44.588 L 19.842 39.893 C 20.252 39.555 20.423 39.007 20.285 38.494 C 18.33 31.212 17.54 24.097 18.21 16.674 C 18.722 11.124 20.883 5.907 24.874 1.72 C 26.156 0.39 28.389 -0.573 30.11 0.39 C 36.152 3.847 38.679 14.082 38.02 20.097 C 36.982 29.809 32.62 38.887 25.891 46.522 C 25.6 46.853 25.483 47.303 25.584 47.731 L 27.474 55.798 C 27.638 56.498 28.324 56.94 29.037 56.846 C 39.8 55.425 49.728 61.892 51.348 71.837 C 52.968 81.774 46.903 90.298 37.191 93.598 C 36.527 93.823 36.114 94.498 36.255 95.185 C 37.502 101.274 38.731 107.671 36.775 113.31 C 34.211 120.654 25.057 121.551 18.613 118.992 C 16.533 118.164 14.781 116.644 13.428 114.858 C 13.427 114.856 13.43 114.853 13.432 114.855 Z M 22.774 37.044 C 22.782 37.044 22.79 37.041 22.796 37.035 C 26.783 33.051 29.783 29.099 32.088 24.583 C 33.406 21.791 34.248 19.033 34.248 15.976 C 34.065 14.547 33.882 12.786 32.637 11.922 C 30.33 10.293 27.291 11.157 25.497 13.052 C 20.522 18.628 20.919 30.438 22.744 37.022 C 22.748 37.035 22.76 37.044 22.774 37.044 Z M 21.048 77.171 C 21.037 77.181 21.033 77.197 21.037 77.211 C 21.789 79.424 23.138 80.328 24.653 80.981 C 25.822 81.486 25.602 82.625 24.36 82.347 C 22.408 81.91 20.614 80.935 19.272 79.514 C 15.903 75.991 14.878 71.106 16.562 66.387 C 17.769 62.98 20.572 59.795 24.775 58.057 C 25.436 57.784 25.825 57.073 25.636 56.383 L 24.099 50.76 C 23.843 49.825 22.711 49.46 21.965 50.079 C 16.406 54.683 10.105 60.483 7.335 66.421 C 4.295 72.934 4.918 79.979 9.422 85.528 C 14.706 92.039 24.07 94.634 32.561 92.415 C 33.231 92.24 33.623 91.557 33.475 90.88 L 28.243 66.902 C 28.083 66.165 27.34 65.697 26.637 65.971 C 22.045 67.766 19.531 72.571 21.058 77.131 C 21.063 77.145 21.059 77.161 21.048 77.171 Z M 42.597 70.508 C 40.205 66.62 35.554 64.727 31.021 65.079 C 30.261 65.138 29.774 65.878 29.941 66.622 L 35.129 89.691 C 35.316 90.524 36.228 90.975 36.966 90.545 C 44.285 86.287 46.931 77.532 42.597 70.508 Z"></path><path transform="matrix(-0.259,-0.966,0.966,-0.259,26.954,109.021)" d="M 13.432 114.855 C 13.434 114.857 13.437 114.854 13.435 114.852 C 11.146 111.732 11.845 108.054 14.841 105.733 C 17.294 103.839 20.736 103.606 23.373 105.135 C 26.009 106.663 27.254 109.721 26.302 112.479 C 25.803 113.925 24.791 115.106 23.408 115.902 C 22.233 116.579 21.956 118.411 23.298 118.6 C 25.648 118.93 28.12 118.61 30.33 117.696 C 38.21 114.4 35.768 102.639 34.461 95.749 C 34.321 95.01 33.604 94.526 32.86 94.642 C 24.062 96.012 15.465 93.487 9.056 87.954 C -0.648 79.613 -2.772 66.819 3.746 56.185 C 6.456 51.766 9.971 48.011 14.145 44.588 L 19.842 39.893 C 20.252 39.555 20.423 39.007 20.285 38.494 C 18.33 31.212 17.54 24.097 18.21 16.674 C 18.722 11.124 20.883 5.907 24.874 1.72 C 26.156 0.39 28.389 -0.573 30.11 0.39 C 36.152 3.847 38.679 14.082 38.02 20.097 C 36.982 29.809 32.62 38.887 25.891 46.522 C 25.6 46.853 25.483 47.303 25.584 47.731 L 27.474 55.798 C 27.638 56.498 28.324 56.94 29.037 56.846 C 39.8 55.425 49.728 61.892 51.348 71.837 C 52.968 81.774 46.903 90.298 37.191 93.598 C 36.527 93.823 36.114 94.498 36.255 95.185 C 37.502 101.274 38.731 107.671 36.775 113.31 C 34.211 120.654 25.057 121.551 18.613 118.992 C 16.533 118.164 14.781 116.644 13.428 114.858 C 13.427 114.856 13.43 114.853 13.432 114.855 Z M 22.774 37.044 C 22.782 37.044 22.79 37.041 22.796 37.035 C 26.783 33.051 29.783 29.099 32.088 24.583 C 33.406 21.791 34.248 19.033 34.248 15.976 C 34.065 14.547 33.882 12.786 32.637 11.922 C 30.33 10.293 27.291 11.157 25.497 13.052 C 20.522 18.628 20.919 30.438 22.744 37.022 C 22.748 37.035 22.76 37.044 22.774 37.044 Z M 21.048 77.171 C 21.037 77.181 21.033 77.197 21.037 77.211 C 21.789 79.424 23.138 80.328 24.653 80.981 C 25.822 81.486 25.602 82.625 24.36 82.347 C 22.408 81.91 20.614 80.935 19.272 79.514 C 15.903 75.991 14.878 71.106 16.562 66.387 C 17.769 62.98 20.572 59.795 24.775 58.057 C 25.436 57.784 25.825 57.073 25.636 56.383 L 24.099 50.76 C 23.843 49.825 22.711 49.46 21.965 50.079 C 16.406 54.683 10.105 60.483 7.335 66.421 C 4.295 72.934 4.918 79.979 9.422 85.528 C 14.706 92.039 24.07 94.634 32.561 92.415 C 33.231 92.24 33.623 91.557 33.475 90.88 L 28.243 66.902 C 28.083 66.165 27.34 65.697 26.637 65.971 C 22.045 67.766 19.531 72.571 21.058 77.131 C 21.063 77.145 21.059 77.161 21.048 77.171 Z M 42.597 70.508 C 40.205 66.62 35.554 64.727 31.021 65.079 C 30.261 65.138 29.774 65.878 29.941 66.622 L 35.129 89.691 C 35.316 90.524 36.228 90.975 36.966 90.545 C 44.285 86.287 46.931 77.532 42.597 70.508 Z"></path></g></g>
  <g transform="translate(62.64,27)" fill="#FFFFFF">
<g transform="translate(0.000,0) scale(0.022000,-0.022000)"><path d="M777 845Q809 845 826.0 826.0Q843 807 843 781Q843 753 826.5 731.0Q810 709 781 695Q753 680 712.0 672.0Q671 664 617 664Q579 664 537.0 668.0Q495 672 452.0 677.0Q409 682 367.0 686.0Q325 690 288 690Q255 690 224.0 686.5Q193 683 175 673Q195 665 208.5 645.0Q222 625 222 599Q222 570 203.5 547.5Q185 525 153 525Q123 525 107.0 545.0Q91 565 91 593Q91 616 103.5 641.5Q116 667 152 685Q175 696 201.0 701.0Q227 706 250.0 707.0Q273 708 286 708Q347 708 404.0 702.0Q461 696 516.0 690.0Q571 684 625 684Q667 684 695.5 688.5Q724 693 746 703L744 695Q731 707 719.5 726.5Q708 746 708 772Q708 802 726.5 823.5Q745 845 777 845ZM413 689Q413 689 426.5 688.0Q440 687 460.0 685.0Q480 683 500.0 681.0Q520 679 533.0 678.0Q546 677 546 677L398 116Q388 79 390.5 59.0Q393 39 412.5 30.5Q432 22 473 20L469 0Q439 2 392.5 2.5Q346 3 296 3Q247 3 202.0 2.5Q157 2 130 0L134 20Q176 22 199.5 30.5Q223 39 236.5 59.5Q250 80 261 116Z"/></g>
<g transform="translate(14.806,0) scale(0.022000,-0.022000)"><path d="M108 0H-15L183 667Q193 701 180.5 717.0Q168 733 119 733L126 754Q192 755 243.5 765.5Q295 776 341 795ZM134 146Q173 258 207.5 332.5Q242 407 275.5 450.5Q309 494 344.5 512.0Q380 530 419 530Q467 530 487.0 508.5Q507 487 506.5 452.0Q506 417 493 379L395 85Q386 58 389.5 44.5Q393 31 409 31Q424 31 441.0 48.0Q458 65 477 117L493 162H512L487 89Q473 47 451.5 25.0Q430 3 405.5 -5.5Q381 -14 357 -14Q312 -14 292.5 6.0Q273 26 274.0 61.0Q275 96 288 139L380 414Q385 430 388.0 447.0Q391 464 387.0 475.0Q383 486 366 486Q344 486 318.5 461.5Q293 437 265.0 393.0Q237 349 209.5 289.5Q182 230 157.0 160.0Q132 90 111 13Z"/></g>
<g transform="translate(27.082,0) scale(0.022000,-0.022000)"><path d="M115 220Q162 238 201.5 257.5Q241 277 268 299Q305 332 328.0 376.5Q351 421 351 474Q351 497 347.0 504.0Q343 511 335 511Q312 511 285.0 489.0Q258 467 232.0 428.5Q206 390 184.5 342.0Q163 294 150.0 241.0Q137 188 137 136Q137 83 157.5 61.5Q178 40 212 40Q241 40 281.0 59.0Q321 78 360 128L376 120Q356 87 323.0 56.0Q290 25 247.5 5.5Q205 -14 154 -14Q112 -14 78.0 2.0Q44 18 25.0 49.5Q6 81 6 127Q6 176 23.0 231.5Q40 287 71.5 340.0Q103 393 146.5 436.0Q190 479 243.0 504.5Q296 530 357 530Q397 530 424.0 511.5Q451 493 451 455Q451 416 429.0 382.0Q407 348 369.5 320.0Q332 292 287.5 270.0Q243 248 198.0 232.0Q153 216 114 206Z"/></g>
<g transform="translate(42.724,0) scale(0.022000,-0.022000)"><path d="M734 708Q719 669 703.0 613.5Q687 558 670 478H648Q657 529 655.5 566.5Q654 604 640 630Q621 666 588.5 683.0Q556 700 517 700Q467 700 419.5 672.0Q372 644 332.0 595.0Q292 546 261.5 483.0Q231 420 214.0 349.5Q197 279 197 209Q197 109 234.5 60.5Q272 12 336 12Q374 12 418.0 30.0Q462 48 494 82Q521 110 540.5 146.0Q560 182 584 240H606Q581 149 567.5 93.5Q554 38 547 0H525Q528 21 528 34Q528 56 520.0 59.0Q512 62 495 51Q469 33 440.0 18.5Q411 4 377.5 -5.0Q344 -14 302 -14Q175 -14 110.0 49.0Q45 112 45 229Q45 299 67.5 369.0Q90 439 131.5 502.5Q173 566 230.5 615.5Q288 665 358.5 693.5Q429 722 510 722Q552 722 579.0 712.5Q606 703 625.0 688.5Q644 674 658 657Q672 642 685.0 653.5Q698 665 713 708Z"/></g>
<g transform="translate(57.794,0) scale(0.022000,-0.022000)"><path d="M145 0H22L142 431Q151 461 148.0 473.0Q145 485 130 485Q111 485 95.0 466.0Q79 447 62 399L45 352H26L52 427Q66 467 87.0 489.5Q108 512 133.0 521.0Q158 530 184 530Q216 530 231.5 517.0Q247 504 251.5 483.0Q256 462 253.5 437.5Q251 413 245 390ZM401 507Q379 507 356.0 491.5Q333 476 308.0 442.0Q283 408 257.5 352.5Q232 297 205.0 217.5Q178 138 151 30L175 163Q206 268 233.5 338.5Q261 409 287.5 451.5Q314 494 344.0 512.0Q374 530 409 530Q445 530 464.5 509.0Q484 488 484 457Q484 432 472.0 410.5Q460 389 440.5 376.5Q421 364 396 364Q371 364 356.5 377.0Q342 390 342 415Q342 437 352.0 455.0Q362 473 378.0 485.5Q394 498 413 503Q411 505 408.0 506.0Q405 507 401 507Z"/></g>
<g transform="translate(67.804,0) scale(0.022000,-0.022000)"><path d="M115 220Q162 238 201.5 257.5Q241 277 268 299Q305 332 328.0 376.5Q351 421 351 474Q351 497 347.0 504.0Q343 511 335 511Q312 511 285.0 489.0Q258 467 232.0 428.5Q206 390 184.5 342.0Q163 294 150.0 241.0Q137 188 137 136Q137 83 157.5 61.5Q178 40 212 40Q241 40 281.0 59.0Q321 78 360 128L376 120Q356 87 323.0 56.0Q290 25 247.5 5.5Q205 -14 154 -14Q112 -14 78.0 2.0Q44 18 25.0 49.5Q6 81 6 127Q6 176 23.0 231.5Q40 287 71.5 340.0Q103 393 146.5 436.0Q190 479 243.0 504.5Q296 530 357 530Q397 530 424.0 511.5Q451 493 451 455Q451 416 429.0 382.0Q407 348 369.5 320.0Q332 292 287.5 270.0Q243 248 198.0 232.0Q153 216 114 206Z"/></g>
<g transform="translate(77.836,0) scale(0.022000,-0.022000)"><path d="M69 15Q77 11 86.0 8.5Q95 6 111 6Q149 6 174.5 30.5Q200 55 200 99Q200 131 186.5 164.0Q173 197 146 237Q122 272 102.5 306.0Q83 340 83 384Q83 427 104.0 459.5Q125 492 164.0 511.0Q203 530 255 530Q289 530 322.0 522.0Q355 514 376.0 493.0Q397 472 397 432Q397 418 391.0 402.5Q385 387 373.0 376.0Q361 365 341 365Q320 365 306.0 381.5Q292 398 292 424Q292 447 300.5 467.0Q309 487 321 502Q307 510 281 510Q245 510 223.0 487.0Q201 464 201 422Q201 400 208.5 380.5Q216 361 229.5 340.5Q243 320 260 293Q288 248 304.0 212.5Q320 177 320 140Q320 96 296.5 61.0Q273 26 232.0 6.0Q191 -14 136 -14Q97 -14 61.5 -3.5Q26 7 3.5 31.0Q-19 55 -19 97Q-19 120 -6.5 139.5Q6 159 32 159Q58 159 71.0 138.0Q84 117 84 86Q84 64 78.5 45.5Q73 27 69 15Z"/></g>
<g transform="translate(86.790,0) scale(0.022000,-0.022000)"><path d="M347 510Q309 510 272.5 479.0Q236 448 206.5 394.5Q177 341 159.5 273.5Q142 206 142 134Q142 82 162.5 59.0Q183 36 216 36Q249 36 284.0 56.0Q319 76 354 128L374 120Q354 87 323.0 56.0Q292 25 251.5 5.5Q211 -14 162 -14Q96 -14 54.0 23.5Q12 61 12 137Q12 186 26.5 240.0Q41 294 69.0 345.5Q97 397 137.0 438.5Q177 480 228.0 505.0Q279 530 340 530Q391 530 423.5 504.0Q456 478 456 437Q456 413 444.5 390.0Q433 367 413.0 352.0Q393 337 367 337Q344 337 329.5 351.0Q315 365 315 388Q315 425 341.5 452.0Q368 479 401 487Q392 497 379.5 503.5Q367 510 347 510Z"/></g>
<g transform="translate(96.756,0) scale(0.022000,-0.022000)"><path d="M115 220Q162 238 201.5 257.5Q241 277 268 299Q305 332 328.0 376.5Q351 421 351 474Q351 497 347.0 504.0Q343 511 335 511Q312 511 285.0 489.0Q258 467 232.0 428.5Q206 390 184.5 342.0Q163 294 150.0 241.0Q137 188 137 136Q137 83 157.5 61.5Q178 40 212 40Q241 40 281.0 59.0Q321 78 360 128L376 120Q356 87 323.0 56.0Q290 25 247.5 5.5Q205 -14 154 -14Q112 -14 78.0 2.0Q44 18 25.0 49.5Q6 81 6 127Q6 176 23.0 231.5Q40 287 71.5 340.0Q103 393 146.5 436.0Q190 479 243.0 504.5Q296 530 357 530Q397 530 424.0 511.5Q451 493 451 455Q451 416 429.0 382.0Q407 348 369.5 320.0Q332 292 287.5 270.0Q243 248 198.0 232.0Q153 216 114 206Z"/></g>
<g transform="translate(106.788,0) scale(0.022000,-0.022000)"><path d="M145 0H22L143 431Q147 445 149.0 457.0Q151 469 147.5 477.0Q144 485 130 485Q111 485 95.5 466.5Q80 448 62 399L45 352H26L52 427Q73 486 106.0 508.0Q139 530 179 530Q212 530 229.5 517.0Q247 504 252.0 483.5Q257 463 254.0 438.5Q251 414 245 390ZM182 182Q219 285 253.0 352.0Q287 419 319.0 458.5Q351 498 385.0 514.0Q419 530 456 530Q505 530 524.5 508.5Q544 487 543.5 452.5Q543 418 530 379L432 85Q423 58 427.0 44.5Q431 31 447 31Q462 31 478.5 48.0Q495 65 514 117L530 162H549L524 89Q510 47 488.5 25.0Q467 3 442.5 -5.5Q418 -14 394 -14Q368 -14 349.5 -5.5Q331 3 321 18Q308 37 310.0 67.0Q312 97 326 139L417 414Q422 430 425.0 446.5Q428 463 424.0 474.5Q420 486 403 486Q382 486 357.0 462.5Q332 439 305.0 397.0Q278 355 251.0 299.0Q224 243 199.5 177.5Q175 112 156 42Z"/></g>
<g transform="translate(119.900,0) scale(0.022000,-0.022000)"><path d="M393 516 390 496H55L60 516ZM150 85Q142 57 152.5 44.0Q163 31 181 31Q202 31 223.5 51.0Q245 71 263 121L278 162H297L277 102Q256 40 219.0 13.0Q182 -14 131 -14Q86 -14 62.5 6.0Q39 26 34.5 60.5Q30 95 43 139L194 666Q230 667 261.5 670.0Q293 673 321 680Z"/></g>
<g transform="translate(133.166,0) scale(0.022000,-0.022000)"><path d="M777 845Q809 845 826.0 826.0Q843 807 843 781Q843 753 826.5 731.0Q810 709 781 695Q753 680 712.0 672.0Q671 664 617 664Q579 664 537.0 668.0Q495 672 452.0 677.0Q409 682 367.0 686.0Q325 690 288 690Q255 690 224.0 686.5Q193 683 175 673Q195 665 208.5 645.0Q222 625 222 599Q222 570 203.5 547.5Q185 525 153 525Q123 525 107.0 545.0Q91 565 91 593Q91 616 103.5 641.5Q116 667 152 685Q175 696 201.0 701.0Q227 706 250.0 707.0Q273 708 286 708Q347 708 404.0 702.0Q461 696 516.0 690.0Q571 684 625 684Q667 684 695.5 688.5Q724 693 746 703L744 695Q731 707 719.5 726.5Q708 746 708 772Q708 802 726.5 823.5Q745 845 777 845ZM413 689Q413 689 426.5 688.0Q440 687 460.0 685.0Q480 683 500.0 681.0Q520 679 533.0 678.0Q546 677 546 677L398 116Q388 79 390.5 59.0Q393 39 412.5 30.5Q432 22 473 20L469 0Q439 2 392.5 2.5Q346 3 296 3Q247 3 202.0 2.5Q157 2 130 0L134 20Q176 22 199.5 30.5Q223 39 236.5 59.5Q250 80 261 116Z"/></g>
<g transform="translate(147.972,0) scale(0.022000,-0.022000)"><path d="M108 0H-15L183 667Q193 701 180.5 717.0Q168 733 119 733L126 754Q192 755 243.5 765.5Q295 776 341 795ZM134 146Q173 258 207.5 332.5Q242 407 275.5 450.5Q309 494 344.5 512.0Q380 530 419 530Q467 530 487.0 508.5Q507 487 506.5 452.0Q506 417 493 379L395 85Q386 58 389.5 44.5Q393 31 409 31Q424 31 441.0 48.0Q458 65 477 117L493 162H512L487 89Q473 47 451.5 25.0Q430 3 405.5 -5.5Q381 -14 357 -14Q312 -14 292.5 6.0Q273 26 274.0 61.0Q275 96 288 139L380 414Q385 430 388.0 447.0Q391 464 387.0 475.0Q383 486 366 486Q344 486 318.5 461.5Q293 437 265.0 393.0Q237 349 209.5 289.5Q182 230 157.0 160.0Q132 90 111 13Z"/></g>
<g transform="translate(160.248,0) scale(0.022000,-0.022000)"><path d="M115 220Q162 238 201.5 257.5Q241 277 268 299Q305 332 328.0 376.5Q351 421 351 474Q351 497 347.0 504.0Q343 511 335 511Q312 511 285.0 489.0Q258 467 232.0 428.5Q206 390 184.5 342.0Q163 294 150.0 241.0Q137 188 137 136Q137 83 157.5 61.5Q178 40 212 40Q241 40 281.0 59.0Q321 78 360 128L376 120Q356 87 323.0 56.0Q290 25 247.5 5.5Q205 -14 154 -14Q112 -14 78.0 2.0Q44 18 25.0 49.5Q6 81 6 127Q6 176 23.0 231.5Q40 287 71.5 340.0Q103 393 146.5 436.0Q190 479 243.0 504.5Q296 530 357 530Q397 530 424.0 511.5Q451 493 451 455Q451 416 429.0 382.0Q407 348 369.5 320.0Q332 292 287.5 270.0Q243 248 198.0 232.0Q153 216 114 206Z"/></g>
<g transform="translate(170.280,0) scale(0.022000,-0.022000)"><path d="M161 32Q179 32 202.0 53.5Q225 75 249.0 114.0Q273 153 295.0 207.0Q317 261 333 325L312 217Q283 132 250.5 81.0Q218 30 182.5 8.0Q147 -14 109 -14Q55 -14 29.0 19.5Q3 53 3 109Q3 161 20.0 218.5Q37 276 67.5 331.5Q98 387 137.0 431.5Q176 476 220.0 503.0Q264 530 308 530Q342 530 360.0 501.5Q378 473 369 415L358 409Q365 451 354.5 475.0Q344 499 320 499Q297 499 271.5 475.0Q246 451 221.0 410.0Q196 369 175.5 317.0Q155 265 143.0 209.0Q131 153 131 100Q131 63 138.5 47.5Q146 32 161 32ZM386 516Q422 517 453.5 520.0Q485 523 514 530L385 86Q381 74 379.5 61.5Q378 49 381.5 40.5Q385 32 398 32Q414 32 431.0 49.0Q448 66 466 118L481 163H500L475 90Q461 49 440.0 26.5Q419 4 395.5 -5.0Q372 -14 349 -14Q301 -14 281 16Q268 38 271.0 70.0Q274 102 284 139Z"/></g>
<g transform="translate(182.314,0) scale(0.022000,-0.022000)"><path d="M393 516 390 496H55L60 516ZM150 85Q142 57 152.5 44.0Q163 31 181 31Q202 31 223.5 51.0Q245 71 263 121L278 162H297L277 102Q256 40 219.0 13.0Q182 -14 131 -14Q86 -14 62.5 6.0Q39 26 34.5 60.5Q30 95 43 139L194 666Q230 667 261.5 670.0Q293 673 321 680Z"/></g>
<g transform="translate(189.970,0) scale(0.022000,-0.022000)"><path d="M115 220Q162 238 201.5 257.5Q241 277 268 299Q305 332 328.0 376.5Q351 421 351 474Q351 497 347.0 504.0Q343 511 335 511Q312 511 285.0 489.0Q258 467 232.0 428.5Q206 390 184.5 342.0Q163 294 150.0 241.0Q137 188 137 136Q137 83 157.5 61.5Q178 40 212 40Q241 40 281.0 59.0Q321 78 360 128L376 120Q356 87 323.0 56.0Q290 25 247.5 5.5Q205 -14 154 -14Q112 -14 78.0 2.0Q44 18 25.0 49.5Q6 81 6 127Q6 176 23.0 231.5Q40 287 71.5 340.0Q103 393 146.5 436.0Q190 479 243.0 504.5Q296 530 357 530Q397 530 424.0 511.5Q451 493 451 455Q451 416 429.0 382.0Q407 348 369.5 320.0Q332 292 287.5 270.0Q243 248 198.0 232.0Q153 216 114 206Z"/></g>
<g transform="translate(200.002,0) scale(0.022000,-0.022000)"><path d="M145 0H22L142 431Q151 461 148.0 473.0Q145 485 130 485Q111 485 95.0 466.0Q79 447 62 399L45 352H26L52 427Q66 467 87.0 489.5Q108 512 133.0 521.0Q158 530 184 530Q216 530 231.5 517.0Q247 504 251.5 483.0Q256 462 253.5 437.5Q251 413 245 390ZM401 507Q379 507 356.0 491.5Q333 476 308.0 442.0Q283 408 257.5 352.5Q232 297 205.0 217.5Q178 138 151 30L175 163Q206 268 233.5 338.5Q261 409 287.5 451.5Q314 494 344.0 512.0Q374 530 409 530Q445 530 464.5 509.0Q484 488 484 457Q484 432 472.0 410.5Q460 389 440.5 376.5Q421 364 396 364Q371 364 356.5 377.0Q342 390 342 415Q342 437 352.0 455.0Q362 473 378.0 485.5Q394 498 413 503Q411 505 408.0 506.0Q405 507 401 507Z"/></g>
  </g>
</svg>